/* XPM */
static const char *dummy_26x14_xpm[] = {
/* columns rows colors chars-per-pixel */
"26 14 3 1",
"  c None",
"a c #FFFFFF",
"b c #FF0000",
/* pixels */
"baaaaaaaaaaaaaaaaaaaaaaaab",
"a                        a",
"a                        a",
"a                        a",
"a                        a",
"a                        a",
"a                        a",
"a                        a",
"a                        a",
"a                        a",
"a                        a",
"a                        a",
"a                        a",
"baaaaaaaaaaaaaaaaaaaaaaaab"
};