/* XPM */
static char *info_xpm[] = {
/* columns rows colors chars-per-pixel */
"20 20 3 1",
"  c #0000bf",
". c #c0c0c0",
"X c white",
/* pixels */
"....................",
"....................",
"....................",
"........    ........",
"......        ......",
".....    XX    .....",
"....     XX     ....",
"....            ....",
"...     XXX      ...",
"...      XX      ...",
"...      XX      ...",
"...      XX      ...",
"....     XX     ....",
"....    XXXX    ....",
".....          .....",
"......        ......",
"........    ........",
"....................",
"....................",
"...................."
};
