/* XPM */
static char *str_edit_linear_xpm[] = {
/* columns rows colors chars-per-pixel */
"20 20 3 1",
"  c opaque",
". c red",
"X c #c0c0c0",
/* pixels */
"XXXXXXXXXXXXXXXXXXXX",
"XXXXXXXXXXXXXXX XXXX",
"XXXXXXXXXXXXXX   XXX",
"XXXXXXXXXXXXXXX XXXX",
"XXXXXXXXXXXXXX.XXXXX",
"XXXXXXXXXXXXXX.XXXXX",
"XXXXXXX   XXXX.XXXXX",
"XXXXXXX  XXXX.XXXXXX",
"XXXXXXX X XXX.XXXXXX",
"XXXXXXXXXX XX.XXXXXX",
"XXXXXXXXXXXX XXXXXXX",
"XXXXXXXXXXX   XXXXXX",
"XXXXXXX....X XXXXXXX",
"XX X...XXXXXXX XXXXX",
"X   XXXXXXXXXXX X XX",
"XX XXXXXXXXXXXXX  XX",
"XXXXXXXXXXXXXXX   XX",
"XXXXXXXXXXXXXXXXXXXX",
"XXXXXXXXXXXXXXXXXXXX",
"XXXXXXXXXXXXXXXXXXXX"
};