/* XPM */
static char *dummy_16x15_xpm[] = {
/* columns rows colors chars-per-pixel */
"16 15 32 1 ",
"  c black",
". c gray100",
"X c #17000C",
"o c #4B0035",
"O c #7F006C",
"+ c #830074",
"@ c #AA00B9",
"# c #AA00E9",
"$ c #7A17F3",
"% c #7517F3",
"& c #3E4BD6",
"* c #177F9C",
"= c #1C8398",
"- c #28AA52",
"; c #28AA53",
": c #5AAA1D",
"> c #5BAA1D",
", c yellow",
"< c #E3E300",
"1 c #AEAE00",
"2 c #6C6C00",
"3 c #353500",
"4 c #0C0C00",
"5 c #8D7F00",
"6 c #978300",
"7 c #B14B00",
"8 c #9F1700",
"9 c #9B1700",
"0 c #680000",
"q c #2F0000",
"w c #040000",
"e c gray100",
/* pixels */
"5%X  O*8     2,,",
"0-@   #:q     <,",
" 7&o  o&7     3,",
" q>#   @;0     1",
"  9=+  X$6w    4",
"  w6$X  +=9     ",
"   0;@   #>q    ",
"    7&o  o&7    ",
"    q>#   @;0   ",
"     9=+  X$6w  ",
"4    w6$X  +=9  ",
"1     0;@   #>q ",
",3     7&o  o&7 ",
",<     q:#   @-0",
",,2     8*O  X%5"
};
