/* XPM */
static char *dummy14_xpm[] = {
/* columns rows colors chars-per-pixel */
"14 14 71 1 ",
"  c black",
". c #010000",
"X c #020200",
"o c #030300",
"O c #030002",
"+ c #030003",
"@ c #050000",
"# c #040001",
"$ c #060000",
"% c #050002",
"& c #040400",
"* c #050004",
"= c #0E000A",
"- c #120100",
"; c #100200",
": c #150000",
"> c #1D0100",
", c #1B0A00",
"< c #140012",
"1 c #110015",
"2 c #130014",
"3 c #180011",
"4 c #220200",
"5 c #381000",
"6 c #391402",
"7 c #351F00",
"8 c #252500",
"9 c #342401",
"0 c #3B3B00",
"q c #2E0225",
"w c #30002A",
"e c #36003F",
"r c #571C01",
"t c #541F0B",
"y c #5A3402",
"u c #7B321C",
"i c #48003B",
"p c #5B3F26",
"a c #514312",
"s c #7B4F1B",
"d c #6D6D00",
"f c #7C4730",
"g c #606427",
"h c #370848",
"j c #490D55",
"k c #541E7E",
"l c #6A0A76",
"z c #620678",
"x c #74575E",
"c c #5A6148",
"v c #63774E",
"b c #4F6D6E",
"n c #5A706A",
"m c #7A6264",
"M c #866529",
"N c #999900",
"B c #D2D200",
"V c #D8D800",
"C c #FBFB00",
"Z c yellow",
"A c #541280",
"S c #700795",
"D c #513C95",
"F c #712190",
"G c #5C20AC",
"H c #5937AB",
"J c #7721A9",
"K c #405293",
"L c #67498C",
"P c #64518F",
"I c #774A96",
/* pixels */
"MG3 iKu;   0VC",
"tnz@ Sv6   @NC",
",fDw qHs;   8B",
"@9mA=*lbr   &d",
" >pLh 2Jg4   &",
"  7xk<@jPy@   ",
"  :aIh@1Fc5   ",
"   5cF1@hIa:  ",
"   @yPj*<kx7  ",
"&   4gJ2 hLp> ",
"d    rbl@=km9@",
"B8   ;sHq wDf,",
"CN&   6vS@*znt",
"CV0   ;uKi 3GM"
};
