/* XPM */
static char *play_stop[] = {
/* columns rows colors chars-per-pixel */
"16 15 2 1 ",
"  c black",
". c None",
/* pixels */
"................",
"................",
"................",
"....        ....",
"....        ....",
"....        ....",
"....        ....",
"....        ....",
"....        ....",
"....        ....",
"....        ....",
"....        ....",
"................",
"................",
"................"
};
