/* XPM */
static char *tree_xpm[] = {
/* width height ncolors chars_per_pixel */
"20 20 4 1",
/* colors */
"` c #00FF00",
"a c #00BF00",
"b c #BFBF00",
"c c #C0C0C0",
/* pixels */
"cccccccccccccccccccc",
"ccccccccaaaaaaaacccc",
"cccccccaaaaaca`caccc",
"cccccaaaa`a``aaaaaac",
"cccca`acaaaca`cc`cac",
"ccaaaac`aaaca`aaaaac",
"caaaaaaaa`aaaaaaaaac",
"caca`caaaaaaaa`ccacc",
"ccccaa`aa`aabaaaaacc",
"ca`aaaaaaaaaaaaa`acc",
"cccccaaaaaaba``aaacc",
"cccccaaacbbbbaaaaacc",
"ccccccaacbbbbccccccc",
"cccccccccbbbbccccccc",
"cccccccccbbbbccccccc",
"cccccccccbbbbccccccc",
"cccccccccbbbbccccccc",
"ccccccccbbbbbbcccccc",
"cccccccbbcbcbbbccccc",
"cccccccccccccccccccc"
};
