/* XPM */
static char *Enviro_32x32[] = {
/* width height ncolors chars_per_pixel */
"32 32 9 1",
/* colors */
"` c #00FF00",
"a c #C0C0C0",
"b c #008080",
"c c #808080",
"d c #800080",
"e c #FFFFFF",
"f c #008000",
"g c #808000",
"h c #0000FF",
/* pixels */
"hhhhhccchhhhhhhhhhhhhhhhhhhhhhhh",
"hhhhcacccbhhhhhhhhhhhhhhhhhhhhhh",
"hhhhcaccccchhhhhhhhhhhhhhhhhhhhh",
"hhhhhaacccccccchhhhhhhhhhhhhhhhh",
"hhhhhcaaaccccaaccbhhhhhhhhhhhhhh",
"hhhhhhaaaaccaac``acchhhhhhhhhhhh",
"hhhhhhaaaaaaaaaacccacbhhhhhhhhhh",
"hhhhhcaaaaaaaaaeaacbccchhhhhhhhh",
"hhhhdaaaaaaaaaaaaaabbccchhhhhhhh",
"hhhcaaaaaaaaaaaacaacbcccchhhhhhh",
"hhaaaaaaaaaacaaaaaacbcccchhhhhhh",
"haaaaaacaaaaaaaaaacbbcccchhhhhhh",
"caaaaaacccaacccaaacbccccccbhhhhh",
"haaccccccccccccaaacbcccccccbhhhh",
"hcacaaacccccccgccccccccccc`bhhhh",
"hhcccaaaccccccccccccccbbccccchhh",
"hhcccccccccccggccccccbbccccccchh",
"hhha`ccccccgfbccccccbbbccccccccc",
"hhhb``gccccgfbcccccccbcccccccccc",
"hhhhc`gcccffgccccccccbccccbcccch",
"hhhhb`gccgffcccccccccccccccccchh",
"hhhhbfgccggccccccccccccccccchhhh",
"hhhhbfgcgccccg`ccccaaccccchhhhhh",
"hhhhbgccgcccg``cccacccddhhhhhhhh",
"hhhhcccccccg``ccccchhhhhhhhhhhhh",
"hhhhccccccf`caccdhhhhhhhhhhhhhhh",
"hhhhaccccc``accchhhhhhhhhhhhhhhh",
"hhhhcccccc`cachhhhhhhhhhhhhhhhhh",
"hhhhhccccaccahhhhhhhhhhhhhhhhhhh",
"hhhhhhhccaachhhhhhhhhhhhhhhhhhhh",
"hhhhhhhhdaachhhhhhhhhhhhhhhhhhhh",
"hhhhhhhhhcchhhhhhhhhhhhhhhhhhhhh"
};
