/* XPM */
static char *building_xpm[] = {
/* columns rows colors chars-per-pixel */
"16 16 4 1",
"  c #0000000000000090",
". c maroon",
"X c olive",
"o c None",
/* pixels */
"                ",
"ooo           oo",
"                ",
"ooo     .     oo",
"       ...      ",
"ooo   .....   oo",
"     .......    ",
"ooo           oo",
"    XXXXXXXXX   ",
"ooo XXXXXXXXX oo",
"    XXXXXXXXX   ",
"ooo XXX  XXXX oo",
"    XXX  XXXX   ",
"ooo XXX  XXXX oo",
"                ",
"oooooooooooooooo"
};
