/* XPM */
static char *folder2_xpm[] = {
/* columns rows colors chars-per-pixel */
"16 16 7 1",
"  c #0000000000000090",
". c red",
"X c yellow",
"o c fractal",
"O c silver",
"+ c white",
"@ c None",
/* pixels */
"................",
".  ooooo       .",
". oXOXOXo      .",
".oXOXOXOXoooooo.",
".o++++++++++++o.",
".o+XOXOXOXOXOXo.",
".o+OXOXOXOXOXOo.",
".o+XOXOXOXOXOXo.",
".o+OXOXOXOXOXOo.",
".o+XOXOXOXOXOXo.",
".o+OXOXOXOXOXOo.",
".@+XOXOXOXOXOXo.",
".oooooooooooooo.",
".@@@@@@@@@@@@@@.",
".              .",
"................"
};
