/* XPM */
static char *grid_xpm[] = {
/* columns rows colors chars-per-pixel */
"16 16 4 1",
"  c #0000000000000090",
". c purple",
"X c fractal",
"o c None",
/* pixels */
"                ",
"o  oo  oo  oo oo",
"   ..........   ",
"o  oo  oo  oo  o",
"  .             ",
"o  X X    X X  o",
"   ... .. ...   ",
"o oooX oo Xooo o",
" .   X    X     ",
"  ooo oooo ooo o",
"  ... .... ...  ",
"  ooo oooo ooo  ",
".               ",
" X            X ",
" .... .... .... ",
"oooooooooooooooo"
};
