/* XPM */
static char *image_xpm[] = {
/* columns rows colors chars-per-pixel */
"16 16 5 1",
"  c #0000000000000090",
". c red",
"X c fractal",
"o c white",
"O c None",
/* pixels */
"                ",
"O   OOOOOO  O OO",
"   ..........   ",
"O  OOXO X XX.  O",
"  .XX X     .   ",
"O OOX OOOO OO. O",
"  .XX X oo XX.  ",
"O OOX O oO XO. O",
" .XX      XX .  ",
" .OOOO XXOOXXO.O",
" .  oo    X  X. ",
" .  oo XX OO X. ",
".X    XXX  XX . ",
".XXXXXXXXX  XXX.",
"................",
"OOOOOOOOOOOOOOOO"
};
