/* XPM */
static char *util_xpm[] = {
/* columns rows colors chars-per-pixel */
"32 32 3 1",
"  c #000000000000003f",
". c yellow",
"X c silver",
/* pixels */
"XXXX.XXXXXXXXX.XXXXXXXXXXXXXXXXX",
"XXX...XXXXXXX...XXXXXXXXXXXXXXXX",
"XXX...XXXXXX.....XXXXXXXXXX.XXXX",
"XXXX.XXXXXXXX    XXXXXXXXX..XXXX",
"XXXX             XXXXXXXXX...XXX",
"XXXX                       .XXXX",
"XXXXXXXXXXXXX               XXXX",
"XXXXXXXXXXXXX    XXXXXXXXXXXXXXX",
"XXXXXXXXXXXXX    XXXXXXXXXXXXXXX",
"X..XXXXXXXXXX    XXXXXXXXXXXXXXX",
"X...XXXXXXXXX    XXXXXXXXXXXXXXX",
"X...XXXXXXXXX    XXXXXXXXXXXXXXX",
"X..     XXXXX    XXXXXXXXXX.XXXX",
"X                XXXXXXXXX...XXX",
"XXXXXX                 XXX...XXX",
"XXXXXXXXXXXXX              ..XXX",
"XXXXXXXXXXXXX    XXXXXX      XXX",
"XXXXXXXXXXXXX    XXXXXXXXXXXXXXX",
"XXXXXXXXXXXXX    XXXXXXXXXXXXXXX",
"XXXXXXXXXXXXX    XXXXXXXXXXXXXXX",
"XXXXXXXXXXXXX    XXXXXXXXXXXXXXX",
"XXXXXXXXXXXXX    XXXXXXXXXXXXXXX",
"XXXXXXXXXXXXX    XXXXXXXXXXXXXXX",
"XXXXXXXXXXXXX    XXXXXXXXXXXXXXX",
"XXXXXXXXXXXXX    XXXXXXXXXXXXXXX",
"XXXXXXXXXXXXX    XXXXXXXXXXXXXXX",
"XXXXXXXXXXXXX    XXXXXXXXXXXXXXX",
"XXXXXXXXXXXXX    XXXXXXXXXXXXXXX",
"XXXXXXXXXXXXX    XXXXXXXXXXXXXXX",
"XXXXXXXXXXXXX    XXXXXXXXXXXXXXX",
"XXXXXXXXXXXXX    XXXXXXXXXXXXXXX",
"XXXXXXXXXXXXX    XXXXXXXXXXXXXXX"
};
