/* XPM */
static char *magick[] = {
/* columns rows colors chars-per-pixel */
"16 16 4 1",
"  c #0000000000000090",
". c green",
"X c maroon",
"o c None",
/* pixels */
"       ..       ",
"oo    ....    oo",
"     ......     ",
"oooo........oooo",
"   ..........   ",
"ooo  ......  ooo",
"    ........    ",
"oo .......... oo",
"  ............  ",
"o   ........   o",
"   ..........   ",
"oooooo.....ooooo",
" .............. ",
"ooooooXXXXXooooo",
"      XXXXX     ",
"ooooooXXXXXooooo"
};
